inDegrees=no
num_controls=7
num_derivatives=13
num_iterations=136
num_multipliers=7
num_parameters=0
num_slacks=7
num_states=26
objective=0.483611
objective_accelerations=0.039983
objective_balance=0.006684
objective_effort=0.035141
objective_height=0.396123
objective_ligament=0.005680
solver_duration=1795.939531
status=Solve_Succeeded
success=true
DataType=double
version=3
OpenSimVersion=4.5
endheader
time	/jointset/ground_pelvis/pelvis_tilt/value	/jointset/ground_pelvis/pelvis_tx/value	/jointset/ground_pelvis/pelvis_ty/value	/jointset/hip_l/hip_flexion_l/value	/jointset/hip_l/hip_adduction_l/value	/jointset/hip_l/hip_rotation_l/value	/jointset/back/lumbar_extension/value	/jointset/patellofemoral_l/patellar_flexion_l/value	/jointset/knee_l/knee_flexion_l/value	/jointset/knee_l/knee_adduction_l/value	/jointset/knee_l/knee_rotation_l/value	/jointset/ankle_l/ankle_angle_l/value	/jointset/subtalar_l/subtalar_angle_l/value	/jointset/ground_pelvis/pelvis_tilt/speed	/jointset/ground_pelvis/pelvis_tx/speed	/jointset/ground_pelvis/pelvis_ty/speed	/jointset/hip_l/hip_flexion_l/speed	/jointset/hip_l/hip_adduction_l/speed	/jointset/hip_l/hip_rotation_l/speed	/jointset/back/lumbar_extension/speed	/jointset/patellofemoral_l/patellar_flexion_l/speed	/jointset/knee_l/knee_flexion_l/speed	/jointset/knee_l/knee_adduction_l/speed	/jointset/knee_l/knee_rotation_l/speed	/jointset/ankle_l/ankle_angle_l/speed	/jointset/subtalar_l/subtalar_angle_l/speed	/forceset/tau_hip_flexion_l	/forceset/tau_hip_adduction_l	/forceset/tau_hip_rotation_l	/forceset/tau_knee_flexion_l	/forceset/tau_ankle_angle_l	/forceset/tau_subtalar_angle_l	/forceset/tau_lumbar_extension	lambda_cid13_p0	lambda_cid13_p1	lambda_cid13_p2	lambda_cid13_p3	lambda_cid13_p4	lambda_cid13_p5	lambda_cid14_p0	/jointset/ground_pelvis/pelvis_tilt/accel	/jointset/ground_pelvis/pelvis_tx/accel	/jointset/ground_pelvis/pelvis_ty/accel	/jointset/hip_l/hip_flexion_l/accel	/jointset/hip_l/hip_adduction_l/accel	/jointset/hip_l/hip_rotation_l/accel	/jointset/back/lumbar_extension/accel	/jointset/patellofemoral_l/patellar_flexion_l/accel	/jointset/knee_l/knee_flexion_l/accel	/jointset/knee_l/knee_adduction_l/accel	/jointset/knee_l/knee_rotation_l/accel	/jointset/ankle_l/ankle_angle_l/accel	/jointset/subtalar_l/subtalar_angle_l/accel	gamma_cid13_p0	gamma_cid13_p1	gamma_cid13_p2	gamma_cid13_p3	gamma_cid13_p4	gamma_cid13_p5	gamma_cid14_p0
0	-0.03682392858664976	0.05667794264611753	0.9203415643930584	0.3085816938045678	-0.2956403588742332	-0.301607462747174	-0.3879492264334186	0.2499269421184936	0.2499269421184919	-0.1745329246770672	-0.1745328733362227	-0.0008036623358878681	0.0004377246669109977	0	0	0	0	0	0	0	0	0	0	0	0	0	0.0884771504073532	-0.08352753540731277	-0.02840908235485972	-0.3138034106448411	0.3188331974538831	-0.01710648389381019	0.004609658284534367	58.97715406086733	-4.384776117240142	1.943999634345904	-37.66128826383297	-634.6279096370541	-84.76750313168249	-23.19697028561649	0.006018542973417786	-0.9074056086727422	-0.7071026102938752	6.762038208805089	-0.8913359623619304	3.34447838061422	-6.540215966947564	9.540837329620794	9.540837329619805	1.236616114660601	-0.06964939418618214	3.357749976164307	0.1966368532922165	-1.971851513287268e-08	1.596634833618545e-07	8.658817430186604e-08	1.079543759998869e-08	6.211015501965668e-08	-3.336217214838176e-08	2.032930371184535e-09
0.01	-0.0368208594406576	0.05663315264690244	0.9203070535682757	0.3089103935885377	-0.2956848006006095	-0.3014391248870175	-0.3882746879558475	0.2503943843400939	0.2503943843400951	-0.174474330067224	-0.1745323288948977	-0.0006391989051320841	0.0004464872359872166	0.0006370224677878609	-0.008913162868207522	-0.006875529194253451	0.06540402567993636	-0.008833720819442519	0.03349790794489497	-0.0646602866700151	0.09304990030030144	0.09304990030029851	0.01167403186724722	0.0001052852738947003	0.03274477038078617	0.001759422252949456	0.08109237959440263	-0.09179468747485407	-0.02704073476784397	-0.3045834160652132	0.3024492790700233	-0.002973232856709185	0.01064125327178127	54.11896526588976	-9.660223761372311	2.771354198116835	-35.39952825385894	-636.9833354689134	-95.28315247732169	-23.2023427242603	0.09601494378702974	-0.8765439206012157	-0.6737702876201194	6.379187762283103	-0.8712372451047616	3.326993242431858	-6.364132344650336	9.121284370682075	9.121284370682305	1.126101123649686	0.05008580642783952	3.2106550689619	0.1665960443462374	-4.711599956008457e-08	1.632256206753499e-07	1.578676747640622e-07	3.683924029869583e-08	-4.271485103647435e-08	-8.74917229461349e-08	-4.786744977954755e-09
0.02	-0.03681072590096671	0.05650057656006396	0.9202045890088247	0.3098830542322456	-0.2958159489558538	-0.3009408986992108	-0.389233791810501	0.2517791691627885	0.2517791691627893	-0.1743003342585272	-0.1745308379371597	-0.0001517248705831998	0.0004730442542029138	0.00141287873979957	-0.01755721752467651	-0.01359074693366518	0.1287921719476808	-0.01734132577365865	0.06597766552997827	-0.1267284664449032	0.1834685202184933	0.1834685202184944	0.02308023977021025	0.0001893032778100691	0.06460212075861729	0.003558889827895755	0.07370760878145027	-0.1000618395423973	-0.02567238718084398	-0.2953634214855846	0.2860653606861626	0.01116001818038978	0.01667284825902798	49.33458678856353	-14.94996302217925	3.602551891976293	-33.34844004685677	-638.30038426062	-105.7072312765448	-23.21812637259861	0.03378530381819413	-0.8535839663250403	-0.6750403193255305	6.358862326366706	-0.8261127893166579	3.140848308651847	-6.021794587922169	9.01458125319888	9.014581253199289	1.183051321803759	-0.07390284818209258	3.180265975573292	0.2046459176915784	-7.451348398729647e-08	1.667877579888453e-07	2.291471752262583e-07	6.288304299740298e-08	-1.475398570926054e-07	-1.41621273743888e-07	-1.160642032709405e-08
0.03	-0.0367924406497407	0.05628283177368032	0.9200355355690371	0.3114802436918751	-0.2960305165946194	-0.300123379742006	-0.3908012915015958	0.2540554385788128	0.2540554385788135	-0.1740136912153102	-0.1745291002676904	0.0006498695921146507	0.0005178119988831668	0.002251829475618022	-0.0259541967153178	-0.0202137242251722	0.1903562249410873	-0.02551992476361544	0.09737579998558718	-0.186423268891652	0.2713711736078764	0.2713711736078766	0.03417608466464468	0.0001680536699177958	0.09556176094309725	0.005395487934219079	0.06754652869122672	-0.09212493386301088	-0.02468213840840129	-0.2883325798211617	0.2775651517045661	0.008534104798250895	0.02167240449825428	46.43999699563916	-13.4203953971062	3.493124533750226	-31.50478947053961	-639.4446465679106	-101.7596095543963	-23.24365159480357	0.1100914260991964	-0.8271107581031079	-0.6550238457673986	6.011741501711076	-0.8059528986350823	3.116721470080494	-5.891092640679262	8.615981323890054	8.615981323889535	1.062062832094522	0.03527058909800886	3.030560615229093	0.1732387377305825	-9.799051204720133e-08	1.143951926614426e-07	3.068819380103973e-07	7.589488283282245e-08	-2.303019192888334e-07	-2.142265957592341e-07	-2.490759897755249e-08
0.04	-0.03676553759762929	0.05598224602285635	0.9198004328739936	0.3136843866246154	-0.2963253141122446	-0.2989963943490321	-0.3929552931306836	0.2571983093171471	0.257198309317148	-0.1736182473713826	-0.1745272737730581	0.001756409971726052	0.000580960120752233	0.003136438916857668	-0.03412541041274118	-0.02680059798483676	0.2501828665698316	-0.03338730154556799	0.1278709526837992	-0.2440288540435211	0.3567887846805405	0.3567887846805332	0.0448403999123284	0.0002070683096573787	0.1255913041413271	0.007234965265657206	0.06138544860100326	-0.0841880281836251	-0.02369188963595637	-0.2813017381567388	0.2690649427229697	0.005908191416111382	0.02667196073748072	43.6145781535121	-11.90023376054681	3.38210806462681	-29.86057951113048	-639.6236125834299	-97.71969146978077	-23.27804637486935	0.04291704490243905	-0.8084308676814642	-0.6678196129570391	6.011380053434264	-0.763868347715814	2.960251957172445	-5.603951128946231	8.517572789855057	8.517572789854182	1.096745392453616	-0.06184999865574066	2.994246578323261	0.2052217627145354	-1.21386705955203e-07	6.084892212494923e-08	3.847497989867413e-07	8.86380224030195e-08	-3.126090754260944e-07	-2.872128615110255e-07	-3.83424168713371e-08
0.05	-0.03672947738639186	0.05560130738920269	0.9194995437545321	0.3164777598063185	-0.2966971280474499	-0.2975699436444363	-0.395673926677839	0.2611830109111888	0.2611830109111898	-0.1731182535540754	-0.1745256340602254	0.003158865630929053	0.000662719405884796	0.004108426984793737	-0.04200185017413758	-0.03337685140458355	0.3081419335041918	-0.04090794692844762	0.1572474115145298	-0.2992714913741497	0.4397221862952125	0.4397221862952244	0.05509198682429487	0.0001253262434514067	0.154769293003451	0.00914165243215213	0.05365602426278839	-0.08031876312585712	-0.02241892688348016	-0.2731593549809105	0.2573860290974445	0.008230239033047761	0.033009188773134	39.92091038238961	-12.3497801701664	3.554083992048206	-28.01015879004053	-640.4752312700913	-97.71011731451777	-23.32022524385263	0.1292570115442722	-0.7681627782287483	-0.6525352179775087	5.635681229889264	-0.7360996410686187	2.900521851858244	-5.420465433100648	8.116829449436468	8.1168294494399	0.9794619374130992	0.01939503963944212	2.859990214687103	0.1870530984707726	-1.367959803045936e-07	1.385890094925857e-08	4.315345131567382e-07	9.850164940896339e-08	-3.755770128333718e-07	-3.332139633591409e-07	-4.738365646831385e-08
0.06	-0.03668271382971397	0.05514342190836306	0.9191328906985745	0.319840225900656	-0.297142135837983	-0.2958548925503662	-0.3989321956778963	0.2659841676418103	0.2659841676418115	-0.1725177245482793	-0.1745246654980033	0.004849184213659328	0.0007642777436530726	0.005277108004933122	-0.04951477984993943	-0.03995338528408548	0.3640014490966458	-0.04802607261111044	0.1855910305786554	-0.3519559446239561	0.5200798119964123	0.5200798119964483	0.06494743761005869	7.283818694404989e-05	0.183163888846781	0.01119477579279905	0.04592659992457615	-0.07644949806808993	-0.02114596413100513	-0.2650169718050801	0.2457071154719198	0.01055228664998352	0.03934641680878908	36.29009106057813	-12.81042061313629	3.727932290134934	-26.34967368505097	-640.4534647595239	-97.62466717776059	-23.36894335644261	0.08225563534310898	-0.7357288505625612	-0.6678757049080688	5.591469785053015	-0.6833644076724534	2.753684003851437	-5.092314312781778	8.002417607160599	8.002417607160714	1.01751816721309	-0.05599919671602856	2.837567974564488	0.2345090015449307	-1.51868963304148e-07	-3.285506762176666e-08	4.770104632506783e-07	1.082440337806229e-07	-4.377306673467551e-07	-3.780788477797332e-07	-5.623990329489869e-08
